<?xml version="1.0" standalone="no"?>
<!DOCTYPE svg PUBLIC "-//W3C//DTD SVG 20010904//EN"
 "http://www.w3.org/TR/2001/REC-SVG-20010904/DTD/svg10.dtd">
<svg version="1.0" xmlns="http://www.w3.org/2000/svg"
 width="512.000000pt" height="512.000000pt" viewBox="0 0 512.000000 512.000000"
 preserveAspectRatio="xMidYMid meet">
<metadata>
Created by potrace 1.16, written by Peter Selinger 2001-2019
</metadata>
<g transform="translate(0.000000,512.000000) scale(0.100000,-0.100000)"
fill="#000000" stroke="none">
<path d="M1080 4775 l0 -345 120 0 120 0 0 115 0 115 100 0 100 0 0 -115 0
-115 120 0 120 0 0 345 0 345 -120 0 -120 0 0 -110 0 -110 -100 0 -100 0 0
110 0 110 -120 0 -120 0 0 -345z"/>
<path d="M1850 5005 l0 -115 105 0 105 0 0 -230 0 -230 115 0 115 0 0 230 0
230 105 0 105 0 0 115 0 115 -325 0 -325 0 0 -115z"/>
<path d="M2590 4775 l0 -345 120 0 120 0 0 158 1 157 72 -112 c40 -62 76 -111
80 -110 5 1 42 54 82 117 l75 115 0 -162 0 -163 120 0 120 0 0 345 0 345 -128
0 -128 0 -59 -97 c-32 -54 -64 -106 -70 -116 -11 -15 -21 -2 -81 98 l-69 115
-127 0 -128 0 0 -345z"/>
<path d="M3480 4775 l0 -345 285 0 285 0 0 115 0 115 -165 0 -165 0 0 230 0
230 -120 0 -120 0 0 -345z"/>
<path d="M744 4068 c4 -29 20 -204 36 -388 120 -1350 155 -1741 185 -2080 19
-212 51 -567 70 -790 20 -222 37 -405 38 -405 21 -10 1470 -405 1486 -405 12
0 142 33 289 74 547 153 1099 305 1145 317 26 6 49 15 52 19 2 4 31 312 65
686 33 373 74 828 90 1009 16 182 48 535 70 785 22 250 54 606 70 790 16 184
32 359 36 388 l5 52 -1821 0 -1821 0 5 -52z m2956 -720 c0 -7 -9 -105 -20
-218 -11 -113 -20 -211 -20 -217 0 -10 -181 -13 -870 -13 l-871 0 6 -47 c9
-77 35 -366 35 -390 l0 -23 831 0 830 0 -6 -42 c-3 -24 -30 -324 -60 -668 -30
-344 -58 -640 -62 -659 l-8 -34 -463 -128 -463 -128 -447 124 c-246 69 -456
129 -468 134 -19 8 -22 28 -48 327 -15 176 -30 336 -33 357 l-6 37 232 0 c127
0 231 -1 232 -2 1 -2 8 -84 17 -182 l17 -179 235 -64 c129 -35 246 -64 260
-64 26 -2 489 119 503 131 6 6 57 503 57 563 0 16 -44 17 -785 17 -432 0 -785
4 -785 9 0 4 -27 304 -60 666 -33 362 -60 668 -60 681 l0 24 1140 0 c905 0
1140 -3 1140 -12z"/>
</g>
</svg>
